<svg width="122" height="120" viewBox="0 0 122 120" fill="none" xmlns="http://www.w3.org/2000/svg">
<rect y="55.2418" width="71" height="99" rx="3" transform="rotate(-50 0 55.2418)" fill="#E4E4E4"/>
<rect x="9.86182" y="54.379" width="57" height="85" rx="2" transform="rotate(-50 9.86182 54.379)" fill="white"/>
<rect x="7.64463" y="30.0059" width="71" height="99" rx="3" transform="rotate(-25 7.64463 30.0059)" fill="#BEBEBE"/>
<rect x="16.9471" y="33.3917" width="57" height="85" rx="2" transform="rotate(-25 16.9471 33.3917)" fill="white"/>
<rect x="25.2382" y="10.3652" width="71" height="99" rx="3" fill="#919191"/>
<rect x="32.2382" y="17.3652" width="57" height="85" rx="2" fill="white"/>
<rect x="49.4838" width="71" height="99" rx="3" transform="rotate(25 49.4838 0)" fill="#5A5A5A"/>
<rect x="52.8697" y="9.30248" width="57" height="85" rx="2" transform="rotate(25 52.8697 9.30248)" fill="white"/>
<rect x="75.8384" y="0.852619" width="71" height="99" rx="3" transform="rotate(50 75.8384 0.852619)" fill="#393939"/>
<rect x="74.9756" y="10.7144" width="57" height="85" rx="2" transform="rotate(50 74.9756 10.7144)" fill="white"/>
</svg>
